<?xml version="1.0" standalone="no"?>
<!DOCTYPE svg PUBLIC "-//W3C//DTD SVG 20010904//EN"
 "http://www.w3.org/TR/2001/REC-SVG-20010904/DTD/svg10.dtd">
<svg version="1.0" xmlns="http://www.w3.org/2000/svg"
 width="85.000000pt" height="85.000000pt" viewBox="0 0 85.000000 85.000000"
 preserveAspectRatio="xMidYMid meet">
<metadata>
Created by potrace 1.11, written by Peter Selinger 2001-2013
</metadata>
<g transform="translate(0.000000,85.000000) scale(0.100000,-0.100000)"
fill="#000000" stroke="none">
<path d="M221 766 c-40 -23 -50 -54 -51 -158 l0 -98 -27 -1 c-105 -2 -133 -23
-134 -100 -3 -201 -2 -208 34 -232 13 -8 50 -15 90 -16 61 -1 73 -5 115 -36
26 -20 51 -35 57 -35 5 0 9 16 8 35 0 37 3 39 60 35 52 -3 83 10 102 43 20 35
36 51 81 83 25 18 44 21 126 22 158 0 168 15 165 254 l-2 158 -28 27 -27 28
-273 2 c-213 2 -277 0 -296 -11z"/>
</g>
</svg>
